REM DIRINDEX 1\2\4\8,1\2\4\9,1\2\4\10,1\2\5\11,1\2\5\12,1\2\5\13,1\2\5\14,1\2\5\15,1\3\6\16,1\3\6\17,1\3\6\18,1\3\7\19,1\3\7\20,1\3\7\21,1\3\7\22,1\3\7\23
REM DIRNAME "folder01","folder02","folder03","folder04","folder05","folder06","folder07","folder08","folder09","folder10","folder11","folder12","folder13","folder14","folder15","folder16","folder17","folder18","folder19","folder20","folder21","folder22","folder23"
TITLE ""
FILE "LR_black_phrase_E_C03.mp3" MP3
  TRACK 01 AUDIO
    TITLE "0:"
    INDEX 01 00:00:00
  TRACK 02 AUDIO
    TITLE "16:cjc171_09921"
    INDEX 01 00:00:14
  TRACK 03 AUDIO
    TITLE "0:"
    INDEX 01 00:01:31
  TRACK 04 AUDIO
    TITLE "17:cjc171_09922"
    INDEX 01 00:01:61
  TRACK 05 AUDIO
    TITLE "0:"
    INDEX 01 00:04:26
  TRACK 06 AUDIO
    TITLE "18:cjc171_09923"
    INDEX 01 00:05:06
  TRACK 07 AUDIO
    TITLE "0:"
    INDEX 01 00:07:46
  TRACK 08 AUDIO
    TITLE "16:cjc171_09924"
    INDEX 01 00:08:51
  TRACK 09 AUDIO
    TITLE "0:"
    INDEX 01 00:09:56
  TRACK 10 AUDIO
    TITLE "17:cjc171_09925"
    INDEX 01 00:10:11
  TRACK 11 AUDIO
    TITLE "0:"
    INDEX 01 00:11:65
  TRACK 12 AUDIO
    TITLE "18:cjc171_09926"
    INDEX 01 00:12:45
  TRACK 13 AUDIO
    TITLE "0:"
    INDEX 01 00:14:24
  TRACK 14 AUDIO
    TITLE "16:cjc171_09927"
    INDEX 01 00:15:27
  TRACK 15 AUDIO
    TITLE "0:"
    INDEX 01 00:16:37
  TRACK 16 AUDIO
    TITLE "17:cjc171_09928"
    INDEX 01 00:16:62
  TRACK 17 AUDIO
    TITLE "0:"
    INDEX 01 00:19:64
  TRACK 18 AUDIO
    TITLE "18:cjc171_09929"
    INDEX 01 00:20:38
  TRACK 19 AUDIO
    TITLE "0:"
    INDEX 01 00:23:43
  TRACK 20 AUDIO
    TITLE "16:cjc171_09930"
    INDEX 01 00:24:40
  TRACK 21 AUDIO
    TITLE "0:"
    INDEX 01 00:25:55
  TRACK 22 AUDIO
    TITLE "17:cjc171_09931"
    INDEX 01 00:26:10
  TRACK 23 AUDIO
    TITLE "0:"
    INDEX 01 00:28:65
  TRACK 24 AUDIO
    TITLE "18:cjc171_09932"
    INDEX 01 00:29:41
  TRACK 25 AUDIO
    TITLE "0:"
    INDEX 01 00:32:22
  TRACK 26 AUDIO
    TITLE "16:cjc171_09933"
    INDEX 01 00:33:25
  TRACK 27 AUDIO
    TITLE "0:"
    INDEX 01 00:34:39
  TRACK 28 AUDIO
    TITLE "17:cjc171_09934"
    INDEX 01 00:34:66
  TRACK 29 AUDIO
    TITLE "0:"
    INDEX 01 00:37:33
  TRACK 30 AUDIO
    TITLE "18:cjc171_09935"
    INDEX 01 00:38:11
  TRACK 31 AUDIO
    TITLE "0:"
    INDEX 01 00:40:53
  TRACK 32 AUDIO
    TITLE "16:cjc171_09936"
    INDEX 01 00:41:56
  TRACK 33 AUDIO
    TITLE "0:"
    INDEX 01 00:42:69
  TRACK 34 AUDIO
    TITLE "17:cjc171_09937"
    INDEX 01 00:43:26
  TRACK 35 AUDIO
    TITLE "0:"
    INDEX 01 00:44:72
  TRACK 36 AUDIO
    TITLE "18:cjc171_09938"
    INDEX 01 00:45:52
  TRACK 37 AUDIO
    TITLE "0:"
    INDEX 01 00:47:27
  TRACK 38 AUDIO
    TITLE "16:cjc171_09939"
    INDEX 01 00:48:33
  TRACK 39 AUDIO
    TITLE "0:"
    INDEX 01 00:49:54
  TRACK 40 AUDIO
    TITLE "17:cjc171_09940"
    INDEX 01 00:49:73
  TRACK 41 AUDIO
    TITLE "0:"
    INDEX 01 00:52:54
  TRACK 42 AUDIO
    TITLE "18:cjc171_09941"
    INDEX 01 00:53:28
  TRACK 43 AUDIO
    TITLE "0:"
    INDEX 01 00:56:09
  TRACK 44 AUDIO
    TITLE "16:cjc171_09942"
    INDEX 01 00:57:12
  TRACK 45 AUDIO
    TITLE "0:"
    INDEX 01 00:58:29
  TRACK 46 AUDIO
    TITLE "17:cjc171_09943"
    INDEX 01 00:58:57
  TRACK 47 AUDIO
    TITLE "0:"
    INDEX 01 01:00:67
  TRACK 48 AUDIO
    TITLE "18:cjc171_09944"
    INDEX 01 01:01:47
  TRACK 49 AUDIO
    TITLE "0:"
    INDEX 01 01:03:58
  TRACK 50 AUDIO
    TITLE "16:cjc171_09945"
    INDEX 01 01:04:61
  TRACK 51 AUDIO
    TITLE "0:"
    INDEX 01 01:05:67
  TRACK 52 AUDIO
    TITLE "17:cjc171_09946"
    INDEX 01 01:06:17
  TRACK 53 AUDIO
    TITLE "0:"
    INDEX 01 01:08:41
  TRACK 54 AUDIO
    TITLE "18:cjc171_09947"
    INDEX 01 01:09:23
  TRACK 55 AUDIO
    TITLE "0:"
    INDEX 01 01:11:48
  TRACK 56 AUDIO
    TITLE "16:cjc171_09948"
    INDEX 01 01:12:53
  TRACK 57 AUDIO
    TITLE "0:"
    INDEX 01 01:13:68
  TRACK 58 AUDIO
    TITLE "17:cjc171_09949"
    INDEX 01 01:14:22
  TRACK 59 AUDIO
    TITLE "0:"
    INDEX 01 01:16:68
  TRACK 60 AUDIO
    TITLE "18:cjc171_09950"
    INDEX 01 01:17:50
  TRACK 61 AUDIO
    TITLE "0:"
    INDEX 01 01:20:21
  TRACK 62 AUDIO
    TITLE "16:cjc171_09951"
    INDEX 01 01:21:22
  TRACK 63 AUDIO
    TITLE "0:"
    INDEX 01 01:22:34
  TRACK 64 AUDIO
    TITLE "17:cjc171_09952"
    INDEX 01 01:22:61
  TRACK 65 AUDIO
    TITLE "0:"
    INDEX 01 01:25:07
  TRACK 66 AUDIO
    TITLE "18:cjc171_09953"
    INDEX 01 01:25:54
  TRACK 67 AUDIO
    TITLE "0:"
    INDEX 01 01:27:74
  TRACK 68 AUDIO
    TITLE "16:cjc171_09954"
    INDEX 01 01:28:70
  TRACK 69 AUDIO
    TITLE "0:"
    INDEX 01 01:30:23
  TRACK 70 AUDIO
    TITLE "17:cjc171_09955"
    INDEX 01 01:30:51
  TRACK 71 AUDIO
    TITLE "0:"
    INDEX 01 01:32:44
  TRACK 72 AUDIO
    TITLE "18:cjc171_09956"
    INDEX 01 01:33:16
  TRACK 73 AUDIO
    TITLE "0:"
    INDEX 01 01:35:11
  TRACK 74 AUDIO
    TITLE "16:cjc171_09957"
    INDEX 01 01:36:10
  TRACK 75 AUDIO
    TITLE "0:"
    INDEX 01 01:37:22
  TRACK 76 AUDIO
    TITLE "17:cjc171_09958"
    INDEX 01 01:37:49
  TRACK 77 AUDIO
    TITLE "0:"
    INDEX 01 01:39:44
  TRACK 78 AUDIO
    TITLE "18:cjc171_09959"
    INDEX 01 01:40:26
  TRACK 79 AUDIO
    TITLE "0:"
    INDEX 01 01:42:21
  TRACK 80 AUDIO
    TITLE "16:cjc171_09960"
    INDEX 01 01:43:24
  TRACK 81 AUDIO
    TITLE "0:"
    INDEX 01 01:44:53
  TRACK 82 AUDIO
    TITLE "17:cjc171_09961"
    INDEX 01 01:45:07
  TRACK 83 AUDIO
    TITLE "0:"
    INDEX 01 01:47:55
  TRACK 84 AUDIO
    TITLE "18:cjc171_09962"
    INDEX 01 01:48:35
  TRACK 85 AUDIO
    TITLE "0:"
    INDEX 01 01:51:08
  TRACK 86 AUDIO
    TITLE "16:cjc171_09963"
    INDEX 01 01:52:07
  TRACK 87 AUDIO
    TITLE "0:"
    INDEX 01 01:53:15
  TRACK 88 AUDIO
    TITLE "17:cjc171_09964"
    INDEX 01 01:53:40
  TRACK 89 AUDIO
    TITLE "0:"
    INDEX 01 01:55:55
  TRACK 90 AUDIO
    TITLE "18:cjc171_09965"
    INDEX 01 01:56:27
  TRACK 91 AUDIO
    TITLE "0:"
    INDEX 01 01:58:41
  TRACK 92 AUDIO
    TITLE "16:cjc171_09966"
    INDEX 01 01:59:35
  TRACK 93 AUDIO
    TITLE "0:"
    INDEX 01 02:00:62
  TRACK 94 AUDIO
    TITLE "17:cjc171_09967"
    INDEX 01 02:01:06
  TRACK 95 AUDIO
    TITLE "0:"
    INDEX 01 02:03:62
  TRACK 96 AUDIO
    TITLE "18:cjc171_09968"
    INDEX 01 02:04:32
  TRACK 97 AUDIO
    TITLE "0:"
    INDEX 01 02:07:13
  TRACK 98 AUDIO
    TITLE "16:cjc171_09969"
    INDEX 01 02:08:12
  TRACK 99 AUDIO
    TITLE "0:"
    INDEX 01 02:09:31
  TRACK 100 AUDIO
    TITLE "17:cjc171_09970"
    INDEX 01 02:09:63
  TRACK 101 AUDIO
    TITLE "0:"
    INDEX 01 02:11:60
  TRACK 102 AUDIO
    TITLE "18:cjc171_09971"
    INDEX 01 02:12:39
  TRACK 103 AUDIO
    TITLE "0:"
    INDEX 01 02:14:36
  TRACK 104 AUDIO
    TITLE "16:cjc171_09972"
    INDEX 01 02:15:44
  TRACK 105 AUDIO
    TITLE "0:"
    INDEX 01 02:16:57
  TRACK 106 AUDIO
    TITLE "17:cjc171_09973"
    INDEX 01 02:17:11
  TRACK 107 AUDIO
    TITLE "0:"
    INDEX 01 02:19:73
  TRACK 108 AUDIO
    TITLE "18:cjc171_09974"
    INDEX 01 02:20:49
  TRACK 109 AUDIO
    TITLE "0:"
    INDEX 01 02:23:35
  TRACK 110 AUDIO
    TITLE "16:cjc171_09975"
    INDEX 01 02:24:33
  TRACK 111 AUDIO
    TITLE "0:"
    INDEX 01 02:25:46
  TRACK 112 AUDIO
    TITLE "17:cjc171_09976"
    INDEX 01 02:25:66
  TRACK 113 AUDIO
    TITLE "0:"
    INDEX 01 02:28:31
  TRACK 114 AUDIO
    TITLE "18:cjc171_09977"
    INDEX 01 02:29:01
  TRACK 115 AUDIO
    TITLE "0:"
    INDEX 01 02:31:41
  TRACK 116 AUDIO
    TITLE "16:cjc171_09978"
    INDEX 01 02:32:36
  TRACK 117 AUDIO
    TITLE "0:"
    INDEX 01 02:33:59
  TRACK 118 AUDIO
    TITLE "17:cjc171_09979"
    INDEX 01 02:34:08
  TRACK 119 AUDIO
    TITLE "0:"
    INDEX 01 02:36:12
  TRACK 120 AUDIO
    TITLE "18:cjc171_09980"
    INDEX 01 02:36:58
  TRACK 121 AUDIO
    TITLE "0:"
    INDEX 01 02:38:62
